<?xml version="1.0" encoding="UTF-8"?>
<!DOCTYPE svg PUBLIC "-//W3C//DTD SVG 1.1//EN" "http://www.w3.org/Graphics/SVG/1.1/DTD/svg11.dtd">
<svg xmlns="http://www.w3.org/2000/svg" version="1.1" width="501px" height="501px" style="shape-rendering:geometricPrecision; text-rendering:geometricPrecision; image-rendering:optimizeQuality; fill-rule:evenodd; clip-rule:evenodd" xmlns:xlink="http://www.w3.org/1999/xlink">
<g><path style="opacity:1" fill="#f05a24" d="M -0.5,-0.5 C 166.5,-0.5 333.5,-0.5 500.5,-0.5C 500.5,166.5 500.5,333.5 500.5,500.5C 333.5,500.5 166.5,500.5 -0.5,500.5C -0.5,333.5 -0.5,166.5 -0.5,-0.5 Z"/></g>
<g><path style="opacity:1" fill="#fdfdfd" d="M 365.5,159.5 C 364.437,163.639 363.77,167.972 363.5,172.5C 370.061,171.278 376.394,169.611 382.5,167.5C 386.136,166.674 389.803,166.008 393.5,165.5C 393.5,167.833 393.5,170.167 393.5,172.5C 391.623,181.302 390.289,190.302 389.5,199.5C 379.579,202.48 369.579,205.147 359.5,207.5C 358.169,215.479 357.335,223.479 357,231.5C 367.489,228.043 378.155,225.043 389,222.5C 389.5,222.833 390,223.167 390.5,223.5C 388.516,235.41 387.183,247.41 386.5,259.5C 361.754,265.52 337.088,271.853 312.5,278.5C 317.828,234.2 322.828,189.866 327.5,145.5C 328.804,138.754 330.138,131.921 331.5,125C 355.809,118.34 380.142,111.84 404.5,105.5C 403.165,117.512 401.665,129.512 400,141.5C 388.9,144.735 377.734,147.901 366.5,151C 365.556,153.719 365.223,156.552 365.5,159.5 Z"/></g>
<g><path style="opacity:1" fill="#069245" d="M 291.5,135.5 C 273.433,140.56 255.266,145.56 237,150.5C 234.765,162.751 233.432,175.084 233,187.5C 239.648,185.118 246.482,183.451 253.5,182.5C 248.92,220.803 244.587,259.137 240.5,297.5C 254.014,294.832 267.181,291.165 280,286.5C 284.172,247.782 288.672,209.115 293.5,170.5C 300.827,168.835 308.16,167.168 315.5,165.5C 315.86,157.944 316.86,150.611 318.5,143.5C 321.5,144.167 324.5,144.833 327.5,145.5C 322.828,189.866 317.828,234.2 312.5,278.5C 337.088,271.853 361.754,265.52 386.5,259.5C 387.183,247.41 388.516,235.41 390.5,223.5C 390,223.167 389.5,222.833 389,222.5C 378.155,225.043 367.489,228.043 357,231.5C 357.335,223.479 358.169,215.479 359.5,207.5C 369.579,205.147 379.579,202.48 389.5,199.5C 390.289,190.302 391.623,181.302 393.5,172.5C 413.099,181.206 429.599,193.873 443,210.5C 449.642,223.103 448.642,235.103 440,246.5C 429.6,259.734 417.767,271.401 404.5,281.5C 398.094,283.238 393.094,286.905 389.5,292.5C 381.336,298.083 373.003,303.416 364.5,308.5C 364.731,303.778 365.398,299.111 366.5,294.5C 366.167,293.833 365.833,293.167 365.5,292.5C 363.5,293.167 361.5,293.833 359.5,294.5C 357.982,300.785 356.649,307.118 355.5,313.5C 352.043,308.754 348.71,303.92 345.5,299C 342.768,298.846 340.102,299.346 337.5,300.5C 335.432,309.376 334.098,318.376 333.5,327.5C 275.031,361.721 213.698,389.887 149.5,412C 137.499,416.278 125.165,418.278 112.5,418C 107.853,415.894 104.686,412.394 103,407.5C 99.2602,394.105 97.7602,380.438 98.5,366.5C 98.6669,356.49 99.0002,346.49 99.5,336.5C 104.411,334.686 109.411,333.019 114.5,331.5C 115.584,330.335 116.417,329.002 117,327.5C 135.341,274.311 154.174,221.311 173.5,168.5C 173.167,168.167 172.833,167.833 172.5,167.5C 160.227,171.141 147.894,174.475 135.5,177.5C 140.88,159.238 149.547,142.738 161.5,128C 168.113,123.511 175.446,121.178 183.5,121C 220.17,120.834 256.17,125.667 291.5,135.5 Z"/></g>
<g><path style="opacity:1" fill="#fdfefd" d="M 318.5,143.5 C 316.86,150.611 315.86,157.944 315.5,165.5C 308.16,167.168 300.827,168.835 293.5,170.5C 288.672,209.115 284.172,247.782 280,286.5C 267.181,291.165 254.014,294.832 240.5,297.5C 244.587,259.137 248.92,220.803 253.5,182.5C 246.482,183.451 239.648,185.118 233,187.5C 233.432,175.084 234.765,162.751 237,150.5C 255.266,145.56 273.433,140.56 291.5,135.5C 300.734,132.858 310.067,130.525 319.5,128.5C 318.836,133.473 318.503,138.473 318.5,143.5 Z"/></g>
<g><path style="opacity:1" fill="#fdfefd" d="M 219.5,154.5 C 220.5,154.5 221.5,154.5 222.5,154.5C 217.296,204.906 211.463,255.239 205,305.5C 204.626,306.416 204.126,307.25 203.5,308C 190.949,311.428 178.449,314.928 166,318.5C 171.114,268.139 176.781,217.806 183,167.5C 183.318,165.939 184.151,164.772 185.5,164C 197.039,161.119 208.373,157.952 219.5,154.5 Z"/></g>
<g><path style="opacity:1" fill="#1d9349" d="M 365.5,159.5 C 371.352,161.928 377.019,164.594 382.5,167.5C 376.394,169.611 370.061,171.278 363.5,172.5C 363.77,167.972 364.437,163.639 365.5,159.5 Z"/></g>
<g><path style="opacity:1" fill="#fefdfd" d="M 99.5,336.5 C 91.3538,337.881 83.3538,339.881 75.5,342.5C 69.9689,294.189 64.6356,245.856 59.5,197.5C 73.2261,194.035 86.8927,190.369 100.5,186.5C 102.242,204.452 102.909,222.452 102.5,240.5C 102.333,254.171 102.5,267.837 103,281.5C 103.791,280.255 104.291,278.922 104.5,277.5C 112.599,244.502 121.265,211.668 130.5,179C 132.154,178.392 133.821,177.892 135.5,177.5C 147.894,174.475 160.227,171.141 172.5,167.5C 172.833,167.833 173.167,168.167 173.5,168.5C 154.174,221.311 135.341,274.311 117,327.5C 116.417,329.002 115.584,330.335 114.5,331.5C 109.411,333.019 104.411,334.686 99.5,336.5 Z"/></g>
<g><path style="opacity:1" fill="#f7a081" d="M 102.5,240.5 C 103.167,252.833 103.833,265.167 104.5,277.5C 104.291,278.922 103.791,280.255 103,281.5C 102.5,267.837 102.333,254.171 102.5,240.5 Z"/></g>
<g><path style="opacity:1" fill="#fef801" d="M 446.5,270.5 C 448.167,270.5 449.833,270.5 451.5,270.5C 451.662,272.527 451.495,274.527 451,276.5C 448.263,277.56 445.43,278.394 442.5,279C 441.62,280.356 441.286,281.856 441.5,283.5C 444.127,282.908 446.794,282.575 449.5,282.5C 449.756,284.792 449.423,286.959 448.5,289C 445.883,289.822 443.216,290.322 440.5,290.5C 440.5,292.167 440.5,293.833 440.5,295.5C 443.127,294.908 445.794,294.575 448.5,294.5C 448.756,296.792 448.423,298.959 447.5,301C 442.345,302.038 437.345,303.538 432.5,305.5C 432.167,304.333 431.833,303.167 431.5,302C 432.83,292.853 433.997,283.686 435,274.5C 438.998,273.383 442.832,272.05 446.5,270.5 Z"/></g>
<g><path style="opacity:1" fill="#fdf702" d="M 404.5,281.5 C 412.438,280.191 414.605,283.191 411,290.5C 402.385,288.095 396.885,291.261 394.5,300C 394.939,305.116 397.605,307.116 402.5,306C 404.615,305.443 406.615,304.609 408.5,303.5C 409.777,306.034 409.777,308.534 408.5,311C 403.118,314.548 397.452,315.215 391.5,313C 385.531,306.712 384.864,299.878 389.5,292.5C 393.094,286.905 398.094,283.238 404.5,281.5 Z"/></g>
<g><path style="opacity:1" fill="#f8fa03" d="M 364.5,308.5 C 363.833,313.833 363.167,319.167 362.5,324.5C 359.475,324.877 356.475,325.044 353.5,325C 351.97,322.648 350.303,320.481 348.5,318.5C 346.678,315.528 344.844,312.528 343,309.5C 342.535,313.848 342.035,318.181 341.5,322.5C 341.887,328.257 339.221,331.257 333.5,331.5C 333.5,330.167 333.5,328.833 333.5,327.5C 334.098,318.376 335.432,309.376 337.5,300.5C 340.102,299.346 342.768,298.846 345.5,299C 348.71,303.92 352.043,308.754 355.5,313.5C 356.649,307.118 357.982,300.785 359.5,294.5C 361.5,293.833 363.5,293.167 365.5,292.5C 365.833,293.167 366.167,293.833 366.5,294.5C 365.398,299.111 364.731,303.778 364.5,308.5 Z"/></g>
<g><path style="opacity:1" fill="#f6fb04" d="M 302.5,309.5 C 303.5,309.5 304.5,309.5 305.5,309.5C 307.67,318.512 310.003,327.512 312.5,336.5C 309.578,337.798 306.578,338.798 303.5,339.5C 303.22,335.775 301.22,334.608 297.5,336C 295.913,336.862 294.246,337.529 292.5,338C 290.641,343.063 286.975,345.397 281.5,345C 286.462,334.241 291.295,323.408 296,312.5C 298.045,311.074 300.212,310.074 302.5,309.5 Z"/></g>
<g><path style="opacity:1" fill="#30993f" d="M 348.5,318.5 C 346.337,320.083 344.004,321.416 341.5,322.5C 342.035,318.181 342.535,313.848 343,309.5C 344.844,312.528 346.678,315.528 348.5,318.5 Z"/></g>
<g><path style="opacity:1" fill="#33a03e" d="M 298.5,321.5 C 300.397,323.698 301.397,326.364 301.5,329.5C 299.326,329.92 297.326,329.92 295.5,329.5C 296.9,326.965 297.9,324.298 298.5,321.5 Z"/></g>
<g><path style="opacity:1" fill="#f8fc02" d="M 250.5,323.5 C 262.249,322.651 266.749,327.984 264,339.5C 262.545,342.912 260.712,346.079 258.5,349C 252.076,353.193 245.076,356.026 237.5,357.5C 237.167,356.5 236.833,355.5 236.5,354.5C 237.615,345.128 238.948,335.795 240.5,326.5C 244.02,325.74 247.353,324.74 250.5,323.5 Z"/></g>
<g><path style="opacity:1" fill="#199742" d="M 248.5,330.5 C 256.467,330.992 258.634,334.992 255,342.5C 252.654,345.505 249.654,347.505 246,348.5C 245.209,342.147 246.042,336.147 248.5,330.5 Z"/></g>
</svg>
